# xmcd
#
# Track frame offsets:
#	150
#	28112
#	48716
#	71488
#	87818
#	111670
#	125774
#	142844
#	162073
#	186258
#	207532
#	223787
#	243371
#	271958
#
# Disc length: 4034 seconds
#
# Revision: 1
# Processed by: cddbd v1.5.2PL0 Copyright (c) Steve Scherf et al.
# Submitted via: audiograbber 1.83.01
#
DISCID=d80fc00e
DTITLE=Marc Almond - Open All Night
DYEAR=1999
DGENRE=New Wave
TTITLE0=Night and Dark
TTITLE1=Bedroom Shine
TTITLE2=Tragedy (Take A Look And See)
TTITLE3=Black Kiss
TTITLE4=Almost Diamonds
TTITLE5=Scarlet Bedroom
TTITLE6=My Love
TTITLE7=Heart In Velvet
TTITLE8=Open All Night
TTITLE9=Theat Of Love
TTITLE10=Bad People Kiss
TTITLE11=Sleppwalker
TTITLE12=Midnight Soul
TTITLE13=Data Track
EXTD=
EXTT0=
EXTT1=
EXTT2=
EXTT3=
EXTT4=
EXTT5=
EXTT6=
EXTT7=
EXTT8=
EXTT9=
EXTT10=
EXTT11=
EXTT12=
EXTT13=
PLAYORDER=
